<?xml version="1.0" encoding="utf-8"?>
<!-- Generator: Adobe Illustrator 25.0.1, SVG Export Plug-In . SVG Version: 6.00 Build 0)  -->
<svg height="150" version="1.1" id="Layer_1" xmlns="http://www.w3.org/2000/svg" xmlns:xlink="http://www.w3.org/1999/xlink" x="0px" y="0px"
	 viewBox="0 0 688.08 445.92" style="enable-background:new 0 0 688.08 445.92;" xml:space="preserve">
<style type="text/css">
	.st0{fill:none;}
</style>
<g>
	<path fill="rgba(180, 153, 96, 0.99)" d="M254.47,88.04c-4.11-5.93-8.06-11.63-12.12-17.48c-2.67,0.43-5.31,0.87-8.12,1.33c-0.14,5.23-0.28,10.31-0.43,15.49
		c0.93,0.24,1.7,0.4,2.45,0.63c1.29,0.42,2.61,0.79,3.84,1.35c1.55,0.7,2.05,1.87,1.51,3.04c-0.52,1.12-1.56,1.47-3.07,1
		c-0.53-0.16-1.03-0.43-1.56-0.6c-3.08-1.02-6.22-1.47-9.43-0.79c-1.16,0.25-2.26,0.77-3.37,1.19c-0.37,0.14-0.68,0.42-1.05,0.57
		c-1.28,0.54-2.33,0.28-2.95-0.71c-0.6-0.96-0.46-2.18,0.73-2.92c1.47-0.92,3.1-1.62,4.73-2.22c1.1-0.41,2.33-0.49,3.76-0.77
		c0.14-4.7,0.29-9.45,0.44-14.51c-1.22,0.15-2.14,0.27-3.07,0.39c-0.55,0.07-1.11,0.2-1.66,0.17c-1.21-0.07-2.03-0.83-2.12-1.9
		c-0.09-1.1,0.44-1.88,1.46-2.2c0.83-0.26,1.71-0.37,2.57-0.54c0.86-0.16,1.73-0.31,2.83-0.51c0.17-6.37,0.35-12.73,0.52-19.23
		c-0.8-0.15-1.4-0.28-2.01-0.36c-2.91-0.4-5.53-1.53-7.89-3.25c-0.57-0.41-1.1-0.96-1.44-1.56c-0.46-0.81-0.41-1.72,0.29-2.44
		c0.69-0.71,1.52-0.82,2.42-0.43c0.22,0.09,0.43,0.22,0.61,0.37c2.65,2.16,5.75,2.98,9.11,3.16c3.59,0.19,7.18,0.47,10.75,0.82
		c4.83,0.47,9.19,1.92,12.41,5.9c4.14,5.11,2.82,12.9-2.87,16.23c-1.42,0.83-2.96,1.47-4.57,2.27c0.24,0.42,0.41,0.77,0.62,1.09
		c3.64,5.26,7.31,10.49,10.91,15.77c0.66,0.97,1.44,1.32,2.56,1.45c1.34,0.15,2.65,0.51,3.96,0.84c0.53,0.13,1.06,0.38,1.54,0.65
		c1.41,0.8,1.91,2.02,1.32,3.16c-0.54,1.05-1.65,1.4-3.12,0.79c-1.96-0.82-3.96-1.17-6.07-1.15c-2.19,0.03-4.29,0.39-6.26,1.38
		c-0.29,0.14-0.57,0.31-0.87,0.4c-1.2,0.39-2.16,0.08-2.71-0.85c-0.55-0.93-0.39-1.98,0.59-2.77c0.61-0.5,1.34-0.86,2.06-1.19
		C252.48,88.74,253.32,88.47,254.47,88.04z M234.26,67.29c1.58-0.22,2.9-0.36,4.21-0.58c3.45-0.59,6.84-1.28,10.12-2.67
		c4.61-1.94,5.08-8.49,1.89-10.95c-1.3-1.01-2.7-2.04-4.22-2.58c-3.63-1.3-7.49-1.19-11.54-1.5
		C234.57,55.13,234.42,61.07,234.26,67.29z"/>
	<path fill="rgba(180, 153, 96, 0.99)" d="M265.46,138.22c-1.78-0.19-3.27-0.38-4.76-0.51c-0.79-0.07-1.61,0.05-2.4-0.05c-1.37-0.16-2.16-0.99-2.16-2.13
		c0-1.14,0.77-2.07,2.15-2.11c2.07-0.06,4.14,0.1,6.21,0.23c0.86,0.05,1.71,0.28,2.78,0.47c2.33-5.24,4.62-10.4,7-15.76
		c-1.18-0.36-2.17-0.59-3.1-0.97c-0.96-0.39-1.92-0.82-2.76-1.42c-1.14-0.81-1.37-1.95-0.79-2.92c0.59-0.98,1.61-1.24,2.94-0.76
		c1.35,0.49,2.67,1.15,4.06,1.39c3.52,0.6,6.99,0.47,10.29-1.22c1.5-0.77,2.75-0.4,3.3,0.74c0.54,1.14,0.11,2.38-1.38,3.15
		c-1.47,0.76-3.06,1.28-4.79,1.99c1.94,5.34,3.86,10.65,5.82,16.04c0.94-0.09,1.72-0.22,2.51-0.23c1.51-0.02,3.04-0.1,4.54,0.06
		c2.1,0.23,2.97,1.15,2.76,2.56c-0.2,1.3-1.27,1.92-3.15,1.81c-0.4-0.02-0.8-0.13-1.19-0.11c-1.18,0.05-2.36,0.13-3.73,0.22
		c0.23,0.83,0.37,1.44,0.57,2.01c1.4,3.91,2.86,7.8,4.22,11.73c0.43,1.24,1,1.93,2.39,2.29c1.67,0.43,3.27,1.27,4.75,2.18
		c1.4,0.87,1.62,2.23,0.86,3.28c-0.71,0.96-1.84,1.16-3.21,0.32c-2.85-1.76-5.89-2.45-9.18-1.78c-1,0.2-1.96,0.64-2.92,1.04
		c-1.58,0.66-2.75,0.45-3.34-0.67c-0.58-1.1-0.18-2.4,1.29-3.18c1.54-0.81,3.22-1.34,5.15-2.11c-1.57-4.35-3.18-8.81-4.83-13.39
		c-1.92,0.34-3.15,1.62-4.49,2.68c-0.5,0.39-0.87,0.93-1.34,1.37c-1.43,1.35-2.47,1.33-3.94-0.01c-1.06-0.97-2.12-1.95-3.24-2.84
		c-0.74-0.59-1.6-1.04-2.39-1.54c-1.22,1.37-4.83,9.11-6.34,13.58c1.2,0.51,2.45,0.97,3.64,1.55c0.86,0.42,1.7,0.9,2.45,1.49
		c0.96,0.76,1.16,1.87,0.66,2.77c-0.55,0.98-1.67,1.31-2.93,0.8c-0.51-0.21-0.98-0.55-1.47-0.81c-3.68-1.95-7.42-2.35-11.27-0.51
		c-0.14,0.07-0.28,0.16-0.43,0.21c-1.48,0.53-2.63,0.25-3.17-0.77c-0.58-1.1-0.16-2.49,1.3-3.17c1.58-0.73,3.31-1.1,4.95-1.7
		c0.62-0.23,1.46-0.52,1.69-1.02C261.21,147.88,263.25,143.2,265.46,138.22z M271.45,135.69c2.15,1.5,4.15,2.89,6.1,4.24
		c2.03-1.37,3.99-2.7,6.13-4.15c-1.77-4.88-3.55-9.78-5.52-15.19C275.77,125.96,273.62,130.8,271.45,135.69z"/>
	<path fill="rgba(180, 153, 96, 0.99)" d="M158.3,85.52c0-4.84,0-9.36,0-14.05c-1.4,0-2.66,0.01-3.91,0c-0.64,0-1.29,0.04-1.91-0.06c-1.21-0.21-1.91-1.05-1.9-2.12
		c0.01-1.07,0.69-1.91,1.94-2.06c1.42-0.18,2.87-0.15,4.3-0.25c0.46-0.03,0.92-0.17,1.47-0.28c0-5.56,0-11.06,0-16.79
		c-0.65-0.16-1.31-0.36-1.97-0.5c-3.19-0.67-6.11-1.89-8.37-4.33c-0.58-0.63-1.11-1.38-1.43-2.17c-0.4-0.99-0.02-1.92,0.9-2.49
		c0.82-0.51,1.68-0.42,2.45,0.2c0.06,0.05,0.13,0.1,0.18,0.16c2.98,4.14,7.49,4.48,11.99,4.81c2.71,0.2,5.43,0.25,8.13,0.49
		c10.98,0.96,19.12,8.57,20.88,19.52c0.88,5.44,0.35,10.85-0.72,16.19c-0.55,2.74-1.78,5.32-3.59,7.51
		c-3.5,4.25-8.12,5.43-13.37,4.52c-1.64-0.28-3.23-0.88-4.83-1.37c-1.68-0.51-3.34-1.08-5.02-1.59c-5.14-1.54-9.95-0.8-14.39,2.21
		c-0.33,0.22-0.67,0.44-1.02,0.62c-1,0.5-1.89,0.26-2.57-0.57c-0.71-0.86-0.65-1.81,0.03-2.63c0.45-0.54,1.02-1.02,1.62-1.4
		c2.65-1.71,5.55-2.8,8.67-3.27C156.62,85.72,157.41,85.63,158.3,85.52z M163.02,71.17c0,5.12,0,10.01,0,14.87
		c3.38,1.09,6.54,2.21,9.76,3.1c1.51,0.41,3.16,0.53,4.73,0.47c2.85-0.1,5.01-1.62,6.42-4.02c0.88-1.5,1.71-3.14,2.05-4.82
		c0.99-4.94,1.61-9.99,0.61-14.98c-1.54-7.61-5.91-12.88-13.65-14.7c-3-0.7-6.17-0.67-9.27-0.93c-0.27-0.02-0.57,0.21-0.75,0.28
		c0,5.45,0,10.77,0,16.26c0.81,0,1.43,0.01,2.05,0c1.68-0.02,3.36-0.13,5.03-0.05c1.23,0.06,2.02,0.91,2.02,1.96
		c0.01,1.08-0.55,1.85-1.6,2.11c-0.76,0.19-1.57,0.22-2.36,0.26C166.42,71.07,164.76,71.11,163.02,71.17z"/>
	<path fill="rgba(180, 153, 96, 0.99)" d="M446.29,80.34c-1.52-0.24-2.97-0.33-4.32-0.73c-1.12-0.33-2.22-0.92-3.16-1.63c-0.84-0.63-0.96-1.64-0.39-2.6
		c0.51-0.86,1.32-1.13,2.27-0.95c0.38,0.07,0.76,0.25,1.11,0.43c3.29,1.63,6.25,0.86,8.89-1.36c1.14-0.96,2-2.26,2.96-3.43
		c0.98-1.2,2.07-1.53,3.1-0.9c1.04,0.64,1.3,1.8,0.59,3.17c-1.13,2.17-2.76,3.91-4.74,5.33c-0.58,0.42-1.19,0.79-1.77,1.17
		c0.99,7.26,8.33,12.47,15.36,10.95c4.78-1.04,8.21-5.46,7.9-10.33c-0.16-2.62-1.64-4.65-3.4-6.42c-1.66-1.66-3.77-2.64-5.94-3.51
		c-2.74-1.1-5.5-2.2-8.07-3.63c-4.13-2.29-6.46-5.91-6.67-10.68c-0.23-5.2,2.79-9.26,7.82-10.68c5.33-1.51,9.9,0.21,14.12,3.36
		c0.64,0.47,1.21,1.03,1.9,1.63c0.61-0.56,1.14-1.17,1.78-1.6c1.25-0.85,2.49-1.74,3.86-2.35c1.28-0.57,2.35-0.08,2.87,0.94
		c0.53,1.02,0.19,2.04-0.97,2.87c-0.26,0.18-0.56,0.3-0.84,0.47c-4.02,2.46-6.17,5.9-5.66,10.76c0.18,1.7-0.5,2.72-1.79,2.89
		c-1.29,0.16-2.12-0.61-2.55-2.29c-0.51-2.02-0.2-4,0.41-5.91c0.37-1.15,0.19-2.05-0.6-2.85c-2.92-2.95-6.38-4.51-10.59-3.88
		c-2.49,0.37-4.29,1.67-5.05,4.18c-0.76,2.5-0.36,4.78,1.43,6.69c1.99,2.13,4.43,3.66,7.11,4.79c1.77,0.74,3.59,1.35,5.33,2.17
		c3.39,1.59,6.08,3.91,8.11,7.19c3.1,5.01,2.16,12.52-2.88,17.02c-6.6,5.9-15.78,4.31-20.51,0.3c-2.8-2.38-4.97-5.18-6.26-8.64
		C446.8,81.6,446.53,80.95,446.29,80.34z"/>
	<path fill="rgba(180, 153, 96, 0.99)" d="M438.2,53.04c-0.05,0.53-0.11,1-0.13,1.47c-0.29,7.35-0.54,14.7-0.86,22.05c-0.15,3.47-0.74,6.82-2.84,9.75
		c-2.83,3.96-6.46,6.67-11.37,7.25c-7.13,0.84-13.31-3.63-15.08-10.86c-0.36-1.46-0.44-3-0.48-4.5c-0.08-2.62-0.02-5.25-0.02-8.14
		c-1.32-0.05-2.49-0.1-3.66-0.15c-0.88-0.04-1.77-0.02-2.63-0.16c-1.31-0.22-1.95-0.94-1.98-2.03c-0.03-1.17,0.69-1.98,2.1-2.16
		c0.94-0.12,1.91-0.06,2.87-0.07c1.02-0.01,2.03,0,3.16,0c0-3.97,0-7.7,0-11.44c-1.5-0.47-2.99-0.78-4.34-1.39
		c-1.07-0.48-2.08-1.21-2.93-2.02c-1.05-1.01-1.04-2.36-0.22-3.22c0.8-0.84,1.89-0.96,3.01-0.03c3.04,2.51,6.46,2.49,9.98,1.54
		c1.05-0.28,2-0.95,2.95-1.53c1.51-0.92,2.62-0.92,3.4,0.12c0.74,0.98,0.58,2.44-0.74,3.36c-1.42,0.98-3.07,1.64-4.64,2.39
		c-0.57,0.27-1.21,0.38-1.84,0.56c0,3.88,0,7.68,0,11.67c1.15,0.06,2.17,0.08,3.18,0.18c1.43,0.14,2.23,0.86,2.32,1.97
		c0.09,1.19-0.78,2.17-2.24,2.32c-1.02,0.1-2.05,0.02-3.36,0.02c0,2.62-0.04,5,0.02,7.38c0.03,1.43,0.02,2.9,0.37,4.27
		c1.84,7.36,9.65,9.99,15.62,5.31c2.7-2.12,4.33-4.89,4.84-8.28c0.23-1.58,0.43-3.18,0.48-4.77c0.2-6.31,0.33-12.63,0.48-18.95
		c0.01-0.46-0.08-0.93-0.12-1.41c-1.42-0.27-2.77-0.45-4.06-0.8c-1.72-0.46-3.32-1.22-4.45-2.66c-0.97-1.24-0.88-2.63,0.19-3.4
		c0.91-0.66,1.84-0.55,2.65,0.13c3.85,3.24,8.02,2.37,12.23,0.97c0.6-0.2,1.15-0.57,1.76-0.75c1.23-0.35,2.18,0.03,2.67,0.98
		c0.49,0.94,0.32,2.06-0.76,2.72c-1.28,0.78-2.73,1.27-4.12,1.87C439.17,52.78,438.71,52.88,438.2,53.04z"/>
	<path fill="rgba(180, 153, 96, 0.99)" d="M451.95,134.54c0.98,0.07,1.84,0.13,2.7,0.19c0.56,0.04,1.12,0.05,1.67,0.13c1.54,0.22,2.4,1.03,2.39,2.2
		c-0.01,1.25-0.99,2.05-2.68,2.12c-1.11,0.05-2.22,0.01-3.55,0.01c-0.32,2.05-0.63,4.07-0.97,6.08c-0.83,4.92-3.23,8.93-6.93,12.27
		c-5.49,4.95-16.33,5.17-21.32-2.99c-2.1-3.43-3.16-7.13-3.6-11.06c-0.7-6.3-0.11-12.45,2.12-18.4c1.16-3.1,2.82-5.91,5.23-8.22
		c2.01-1.93,4.36-3.21,7.08-3.82c4.89-1.1,9.7,1.65,11.04,6.47c0.32,1.15,0.89,1.92,1.65,2.77c2.58,2.87,3.85,6.4,4.72,10.09
		C451.67,133.05,451.79,133.74,451.95,134.54z M447.79,138.94c-1.8,0-3.23,0.07-4.66-0.02c-1.73-0.11-2.65-0.95-2.63-2.2
		c0.02-1.17,0.83-1.9,2.46-2.1c0.79-0.1,1.6-0.07,2.39-0.12c0.61-0.04,1.22-0.12,2-0.19c-0.42-2.68-1.15-5.01-2.63-7.19
		c-1.01,1.18-1.76,2.24-2.69,3.09c-2.44,2.22-5.21,3.4-8.57,2.3c-1.46-0.48-2.22-1.39-2.05-2.53c0.18-1.26,1.33-2.11,2.92-1.71
		c2.87,0.71,4.57-0.74,5.98-2.85c1.14-1.71,1.11-4.6-0.08-6.13c-1.36-1.75-3.1-2.28-5.32-1.78c-2.13,0.47-3.86,1.45-5.33,3
		c-1.8,1.89-3.02,4.13-3.87,6.56c-2.12,6.03-2.37,12.21-1.31,18.45c0.43,2.53,1.37,4.89,2.82,7.07c3.34,5.02,10.3,4.9,13.82,2.15
		C446.08,150.79,447.62,145.39,447.79,138.94z"/>
	<path fill="rgba(180, 153, 96, 0.99)" d="M506.7,87.6c1.53,0.54,3.14,1,4.66,1.68c1,0.45,1.95,1.1,2.77,1.84c0.77,0.7,0.91,1.68,0.28,2.62
		c-0.63,0.93-1.54,1.08-2.54,0.79c-0.37-0.11-0.72-0.35-1.05-0.56c-2.99-1.9-6.31-2.18-9.7-1.81c-1.14,0.12-2.26,0.7-3.33,1.21
		c-1.56,0.75-2.72,0.67-3.37-0.42c-0.63-1.06-0.33-2.45,1.05-3.29c1.28-0.77,2.74-1.25,4.15-1.77c0.66-0.24,1.39-0.28,2.35-0.46
		c0-5.11,0-10.17,0-15.53c-0.9,0-1.84,0.01-2.77,0c-0.8-0.01-1.61,0.04-2.39-0.07c-1.36-0.2-2.13-1.05-2.13-2.19
		c0.01-1.15,0.76-1.92,2.18-2.08c0.95-0.11,1.92-0.05,2.87-0.08c0.78-0.03,1.56-0.08,2.51-0.13c0-5.33,0-10.48,0-15.84
		c-3.81,0-7.52,0-11.38,0c-0.14,1.48-0.18,3-0.46,4.46c-0.3,1.56-0.7,3.12-1.31,4.58c-0.59,1.39-1.79,1.82-2.92,1.39
		c-1.13-0.43-1.58-1.53-1.04-3.02c1.81-5.08,1.48-10.04-0.61-14.95c-0.12-0.29-0.26-0.59-0.31-0.9c-0.17-1.05,0.15-1.9,1.14-2.4
		c0.92-0.47,1.79-0.23,2.39,0.49c0.6,0.72,1.06,1.59,1.45,2.45c0.42,0.94,0.67,1.95,1.08,3.18c8.58,0.17,17.18,0.34,25.8,0.51
		c0.51-1.36,0.9-2.57,1.41-3.74c0.31-0.73,0.71-1.45,1.21-2.05c0.73-0.88,1.99-1.05,2.81-0.46c0.87,0.62,1.19,1.48,0.81,2.53
		c-0.14,0.37-0.32,0.73-0.49,1.09c-2.17,4.44-2.1,8.94-0.39,13.49c0.22,0.6,0.52,1.17,0.69,1.79c0.37,1.36-0.07,2.41-1.11,2.83
		c-1.04,0.42-2.12,0.02-2.84-1.16c-0.37-0.61-0.71-1.27-0.89-1.96c-0.65-2.46-1.22-4.94-1.91-7.76c-2.51,0-5.34,0-8.21,0
		c-0.46,1.54-0.65,12.69-0.19,15.46c0.74,0.03,1.53,0.08,2.31,0.1c0.8,0.02,1.6-0.03,2.4,0.04c1.58,0.12,2.48,0.85,2.56,2.01
		c0.09,1.24-0.85,2.2-2.52,2.32c-1.58,0.11-3.17,0.02-5,0.02C506.7,77.25,506.7,82.41,506.7,87.6z"/>
	<path fill="rgba(180, 153, 96, 0.99)" d="M411.36,134.48c1.11,0,2.06-0.02,3.01,0.01c0.56,0.01,1.12,0.03,1.66,0.16c1.04,0.24,1.68,0.92,1.78,2
		c0.09,0.99-0.69,1.98-1.86,2.15c-1.33,0.2-2.68,0.2-4.1,0.28c-0.22,1.58-0.37,3.08-0.65,4.55c-0.95,4.96-2.88,9.48-6.39,13.19
		c-5.11,5.39-11.78,5.83-17.64,1.28c-4.26-3.31-6.54-7.79-7.54-12.96c-1.34-6.92-0.73-13.72,1.95-20.23
		c1.96-4.77,4.95-8.67,9.9-10.88c6.01-2.69,11.54,1.17,12.54,6.08c0.2,0.98,0.66,1.6,1.49,2.26c2.5,2.02,3.77,4.9,4.74,7.89
		C410.65,131.54,410.94,132.87,411.36,134.48z M403.61,126.81c-1.4,1.43-2.52,2.79-3.86,3.9c-2.18,1.8-4.81,2.08-7.5,1.63
		c-1.63-0.27-2.45-1.32-2.27-2.58c0.17-1.18,1.09-1.79,2.71-1.77c0.32,0,0.64,0.07,0.95,0.1c2.45,0.24,4.14-0.98,5.39-2.91
		c1.23-1.91,1.09-4.46-0.27-6.06c-1.41-1.66-3.28-1.98-5.67-0.98c-3.66,1.52-5.81,4.5-7.23,7.96c-2.9,7.12-3.45,14.41-0.91,21.79
		c0.97,2.81,2.72,5.07,5.07,6.84c4.02,3.03,8.15,2.71,11.59-0.94c3.06-3.25,4.63-7.24,5.3-11.6c0.15-0.98,0.16-1.98,0.25-3.1
		c-1.27,0-2.21,0.02-3.16-0.01c-0.79-0.03-1.6-0.02-2.37-0.21c-0.93-0.23-1.5-0.92-1.52-1.92c-0.02-1.11,0.58-1.82,1.63-2.08
		c0.61-0.15,1.26-0.17,1.9-0.22c0.94-0.08,1.88-0.14,2.93-0.21C406.3,131.49,405.34,129.04,403.61,126.81z"/>
	<path fill="rgba(180, 153, 96, 0.99)" d="M240.04,153.12c1.48,0.49,2.88,0.83,4.18,1.41c1.15,0.52,2.27,1.19,3.25,1.99c0.89,0.73,0.93,2,0.34,2.83
		c-0.61,0.86-1.66,1.09-2.78,0.58c-0.36-0.16-0.68-0.43-1.04-0.6c-4.3-2.04-8.61-2.88-13.04-0.32c-1.23,0.71-2.33,0.49-3-0.41
		c-0.69-0.93-0.64-2.13,0.47-2.98c1.05-0.81,2.3-1.42,3.54-1.92c1.02-0.41,2.17-0.51,3.47-0.79c0-5.04,0-10.12,0-15.55
		c-1.13,0-2.3,0-3.46,0c-0.56,0-1.12,0.03-1.68-0.04c-1.33-0.16-2.19-1.02-2.21-2.11c-0.02-1.08,0.84-2.03,2.16-2.16
		c1.27-0.12,2.56-0.05,3.83-0.07c0.4-0.01,0.79-0.05,1.17-0.07c0.54-1.6,0.88-11.97,0.48-15.81c-3.71-0.27-7.49-0.22-11.35-0.34
		c-0.25,2.17-0.4,4.14-0.75,6.08c-0.21,1.16-0.61,2.33-1.14,3.38c-0.68,1.35-1.9,1.75-2.98,1.21c-1.03-0.51-1.48-1.54-0.97-2.87
		c1.97-5.15,1.49-10.17-0.6-15.16c-0.61-1.46-0.28-2.61,0.76-3.15c1.13-0.59,2.42-0.18,3.17,1.29c0.77,1.48,1.28,3.08,1.96,4.75
		c8.5,0.19,17.04,0.39,25.63,0.58c0.51-1.32,0.92-2.52,1.44-3.67c0.36-0.79,0.77-1.6,1.34-2.25c0.68-0.78,1.61-1.01,2.6-0.44
		c0.88,0.51,1.14,1.31,0.97,2.25c-0.08,0.46-0.29,0.91-0.5,1.34c-2.26,4.61-2.1,9.26-0.3,13.95c0.2,0.52,0.48,1.02,0.62,1.56
		c0.31,1.2-0.11,2.15-1.08,2.63c-0.95,0.47-2.05,0.23-2.72-0.8c-0.56-0.86-1.03-1.83-1.29-2.82c-0.61-2.3-1.07-4.65-1.65-7.24
		c-2.61,0-5.36,0-8.17,0c-0.47,1.39-0.78,12.53-0.33,15.59c1.02,0,2.11-0.01,3.2,0c0.72,0.01,1.45-0.04,2.15,0.08
		c1.2,0.2,1.91,1.05,1.91,2.11c0,1.06-0.71,1.93-1.93,2.08c-1.1,0.14-2.23,0.08-3.35,0.1c-0.63,0.01-1.27,0-1.85,0
		C239.91,139.14,239.66,147.99,240.04,153.12z"/>
	<path fill="rgba(180, 153, 96, 0.99)" d="M332.28,68.77c1.7,0,2.89-0.03,4.08,0.01c0.63,0.02,1.28,0.09,1.89,0.26c0.94,0.27,1.48,0.95,1.47,1.95
		c-0.01,1.11-0.63,1.83-1.69,2.01c-0.86,0.15-1.75,0.14-2.63,0.15c-1.82,0.02-3.64,0.01-5.61,0.01c0,4.98,0,9.65,0,14.23
		c1.94,0.73,3.84,1.31,5.62,2.17c1.95,0.95,2.55,2.3,1.92,3.56c-0.64,1.28-1.87,1.35-3.95,0.33c-3.89-1.89-7.84-1.9-11.8-0.23
		c-0.51,0.22-0.98,0.56-1.51,0.73c-1.02,0.33-1.91,0.07-2.51-0.86c-0.61-0.95-0.46-1.94,0.36-2.6c0.85-0.7,1.84-1.28,2.86-1.68
		c1.32-0.53,2.74-0.84,4.34-1.32c0-4.58,0-9.26,0-14.25c-1.14-0.04-2.38-0.09-3.62-0.12c-1.12-0.03-2.24,0.02-3.35-0.09
		c-1.41-0.14-2.21-0.96-2.21-2.07c0-1.08,0.81-1.95,2.19-2.14c0.94-0.13,1.91-0.06,2.87-0.1c0.38-0.01,0.76-0.07,1.39-0.13
		c-0.42-0.69-0.71-1.23-1.06-1.72c-2.97-4.07-5.98-8.1-8.92-12.2c-0.66-0.91-1.4-1.35-2.5-1.59c-1.54-0.34-3.06-0.91-4.51-1.53
		c-0.7-0.3-1.35-0.88-1.84-1.48c-0.66-0.83-0.63-1.81,0.09-2.64c0.64-0.73,1.47-0.95,2.38-0.52c0.79,0.38,1.52,0.9,2.34,1.19
		c4.03,1.43,8,1.23,11.87-0.59c0.43-0.2,0.81-0.53,1.24-0.72c1.13-0.49,2.18-0.22,2.78,0.64c0.59,0.86,0.56,2.08-0.4,2.81
		c-1.12,0.86-2.42,1.52-3.72,2.11c-0.93,0.43-1.97,0.61-2.96,0.9c0.6,1.61,8.43,12.35,10.44,14.32c3.71-5.2,7.4-10.37,11.19-15.69
		c-1.45-0.54-2.67-0.91-3.8-1.45c-0.92-0.44-1.83-1.01-2.57-1.7c-0.77-0.72-0.86-1.72-0.24-2.63c0.62-0.89,1.5-1.16,2.53-0.75
		c0.37,0.15,0.7,0.38,1.06,0.56c4.45,2.19,8.88,2.39,13.28-0.12c0.21-0.12,0.41-0.26,0.62-0.36c1.16-0.51,2.17-0.29,2.78,0.59
		c0.59,0.85,0.59,2.14-0.35,2.81c-1.34,0.96-2.85,2.18-4.37,2.3c-3.27,0.25-4.76,2.31-6.35,4.65c-2.42,3.58-4.99,7.05-7.49,10.57
		C333.46,66.97,333.04,67.63,332.28,68.77z"/>
	<path fill="rgba(180, 153, 96, 0.99)" d="M370.56,117.94c-3.14,0-6.06,0-9.24,0c0,5.34,0,10.58,0,16.04c0.48,0.08,1.08,0.21,1.68,0.27
		c1.03,0.09,2.08,0.07,3.11,0.21c1.58,0.21,2.52,1.25,2.37,2.48c-0.14,1.15-1.09,1.84-2.66,1.87c-1.51,0.03-3.02,0.01-4.79,0.01
		c0,5.15,0,10.29,0,15.49c1.42,0.44,2.87,0.85,4.3,1.33c0.6,0.2,1.2,0.47,1.73,0.81c1.18,0.74,1.58,1.81,1.16,2.83
		c-0.48,1.15-1.55,1.53-3.02,1.06c-0.45-0.15-0.89-0.36-1.33-0.54c-3.79-1.56-7.61-1.64-11.45-0.16c-0.45,0.17-0.89,0.37-1.35,0.48
		c-1.34,0.34-2.36-0.11-2.78-1.19c-0.41-1.05-0.03-2.21,1.22-2.77c1.45-0.65,3-1.08,4.52-1.56c0.67-0.21,1.38-0.31,2.27-0.5
		c0-5.18,0-10.27,0-15.63c-0.67-0.04-1.44-0.09-2.21-0.12c-0.96-0.04-1.92,0.01-2.88-0.09c-1.41-0.15-2.22-0.94-2.27-2.04
		c-0.05-1.19,0.83-2.07,2.34-2.24c0.71-0.08,1.44-0.03,2.16-0.04c0.8-0.01,1.6-0.01,2.4-0.04c0.15,0,0.29-0.09,0.76-0.26
		c0-5.11,0-10.34,0-15.79c-3.32,0-6.79,0-10.41,0c-0.21,1.2-0.33,2.47-0.68,3.67c-0.6,2.06-1.21,4.14-2.05,6.11
		c-0.64,1.5-1.96,1.95-3.11,1.45c-1.16-0.5-1.39-1.65-0.86-3.3c0.73-2.27,1.51-4.55,1.96-6.89c0.49-2.53,0.4-5.1-0.85-7.49
		c-0.15-0.28-0.3-0.58-0.36-0.88c-0.22-1.02-0.06-1.94,0.94-2.48c0.96-0.51,1.92-0.35,2.62,0.45c0.51,0.59,0.89,1.32,1.22,2.04
		c0.36,0.79,0.6,1.64,0.96,2.67c8.34,0,16.69,0,25.16,0c0.29-0.78,0.55-1.61,0.9-2.41c0.28-0.66,0.59-1.33,1.02-1.89
		c0.64-0.84,1.53-1.17,2.55-0.69c1,0.48,1.32,1.34,1.16,2.39c-0.05,0.31-0.15,0.62-0.27,0.92c-1.97,4.75-1.76,9.5,0.01,14.25
		c0.03,0.07,0.07,0.14,0.1,0.22c0.59,1.75,0.23,3.01-1,3.48c-1.23,0.47-2.43-0.12-3.09-1.91c-0.69-1.86-1.15-3.81-1.57-5.75
		C370.67,120.68,370.69,119.46,370.56,117.94z"/>
	<path fill="rgba(180, 153, 96, 0.99)" d="M320.43,139.12c-0.13,5.34-0.26,10.27-0.38,15.15c1.8,0.47,3.36,0.79,4.86,1.3c0.88,0.3,1.74,0.81,2.46,1.42
		c0.72,0.61,0.87,1.5,0.4,2.4c-0.47,0.9-1.25,1.2-2.2,1.08c-0.39-0.05-0.78-0.19-1.14-0.35c-4.03-1.79-8.07-1.63-12.11-0.06
		c-0.22,0.09-0.44,0.2-0.67,0.27c-1.37,0.38-2.42,0.04-2.91-0.95c-0.53-1.06-0.15-2.27,1.19-3c1.04-0.57,2.2-0.92,3.33-1.31
		c0.74-0.25,1.52-0.39,2.48-0.63c0-5.1,0-10.12,0-15.37c-0.79-0.05-1.64-0.11-2.5-0.16c-0.72-0.04-1.45-0.01-2.15-0.12
		c-1.22-0.2-1.96-1.02-1.98-2.05c-0.01-1,0.74-1.91,1.92-2.13c0.7-0.13,1.43-0.08,2.15-0.09c0.87-0.01,1.74,0,2.9,0
		c0.13-5.62,0.25-11.1,0.37-16.54c-1.77-0.64-7.23-0.92-10.69-0.53c-0.04,0.8-0.08,1.64-0.11,2.49c-0.09,2.42-0.58,4.76-1.67,6.93
		c-0.35,0.69-0.84,1.4-1.45,1.85c-1.31,0.94-3.06,0.03-3.13-1.59c-0.02-0.53,0.16-1.11,0.39-1.6c2.14-4.59,1.83-9.14-0.18-13.67
		c-0.13-0.29-0.29-0.58-0.39-0.88c-0.38-1.15-0.07-2.22,0.8-2.74c0.94-0.57,2.23-0.34,2.94,0.75c0.73,1.13,1.26,2.39,1.97,3.8
		c8.57,0.2,17.26,0.4,26.03,0.61c0.25-0.61,0.45-1.11,0.66-1.61c0.34-0.81,0.6-1.66,1.02-2.42c0.89-1.61,2.12-2.1,3.31-1.43
		c1.13,0.63,1.34,1.7,0.64,3.34c-1.91,4.45-2.01,8.97-0.62,13.57c0.16,0.53,0.51,1.14,0.37,1.59c-0.21,0.7-0.62,1.58-1.2,1.85
		c-0.57,0.27-1.63,0.11-2.15-0.29c-0.64-0.49-1.15-1.38-1.35-2.18c-0.45-1.85-0.71-3.75-0.99-5.65c-0.1-0.69-0.02-1.41-0.02-2.34
		c-3.27,0-6.34,0-9.71,0c-0.14,5.53-0.29,11.07-0.44,16.81c1.14,0.06,2,0.11,2.85,0.15c0.64,0.03,1.29-0.01,1.91,0.09
		c1.25,0.19,1.96,0.94,2,2.01c0.05,1.14-0.74,2.12-2.05,2.22C323.72,139.21,322.21,139.12,320.43,139.12z"/>
	<path fill="rgba(180, 153, 96, 0.99)" d="M270.79,46.56c8.38,0,16.68,0,24.98,0c0.6-1.32,1.05-2.61,1.74-3.75c0.52-0.86,1.26-1.68,2.08-2.25
		c0.83-0.58,1.85-0.47,2.62,0.35c0.67,0.73,0.73,1.57,0.27,2.44c-0.11,0.21-0.23,0.42-0.38,0.61c-2.96,3.84-2.47,7.88-0.71,12
		c0.25,0.59,0.65,1.12,0.83,1.72c0.31,1.01,0.07,1.92-0.88,2.5c-0.95,0.58-2.01,0.44-2.6-0.39c-0.87-1.22-1.61-2.57-2.13-3.97
		c-0.55-1.48-0.79-3.07-1.18-4.7c-2.83,0-5.6,0-8.71,0c-0.11,5.56-0.15,11.02-0.14,16.66c1.31,0.1,2.41,0.19,3.52,0.27
		c0.64,0.05,1.29,0.02,1.91,0.13c1.18,0.22,1.93,1.1,1.91,2.13c-0.01,1.02-0.79,1.96-1.97,2.07c-1.19,0.11-2.39,0.01-3.59,0
		c-0.47,0-0.95,0-1.39,0c-0.58,1.74-0.8,10.15-0.4,15.02c0.91,0.23,1.92,0.4,2.87,0.73c1.12,0.39,2.27,0.81,3.27,1.43
		c1.27,0.79,1.56,2.04,0.94,3.08c-0.58,0.97-1.61,1.22-2.96,0.75c-1.28-0.44-2.53-0.99-3.85-1.27c-3.3-0.68-6.52-0.2-9.65,0.99
		c-0.6,0.23-1.19,0.5-1.8,0.63c-0.96,0.2-1.79-0.13-2.23-1.01c-0.48-0.95-0.35-1.94,0.53-2.59c0.76-0.56,1.63-1.04,2.52-1.33
		c1.81-0.57,3.68-0.99,5.72-1.52c0-4.95,0-9.94,0-15.15c-0.95-0.06-1.89-0.11-2.82-0.17c-0.72-0.05-1.45-0.03-2.14-0.18
		c-1.33-0.29-2.07-1.25-1.94-2.35c0.13-1.02,0.9-1.75,2.19-1.82c1.51-0.08,3.03-0.02,4.9-0.02c0.16-5.43,0.06-10.81,0.2-16.38
		c-3.75,0-7.29,0-10.87,0c-0.28,1.69-0.38,3.3-0.83,4.8c-0.45,1.51-1.12,2.99-1.95,4.33c-0.86,1.39-2.24,1.65-3.28,0.94
		c-0.99-0.68-1.22-1.82-0.41-3.19c2.61-4.39,2.31-8.83,0.38-13.33c-0.85-1.98-0.67-3.18,0.55-3.78c1.3-0.65,2.5,0.05,3.46,2.03
		c0.28,0.57,0.5,1.18,0.74,1.77C270.34,45.37,270.56,45.96,270.79,46.56z"/>
	<path fill="rgba(180, 153, 96, 0.99)" d="M395.34,88.5c-0.59-2.06-1.13-3.8-1.59-5.57c-0.72-2.76-0.58-5.55-0.22-8.34c0.08-0.61,0.29-1.33,0.7-1.73
		c0.46-0.45,1.3-0.9,1.84-0.77c0.65,0.15,1.33,0.82,1.68,1.44c0.28,0.48,0.16,1.25,0.09,1.87c-0.51,4.25,0.31,8.26,2.07,12.13
		c1.57,3.45,0.93,4.57-2.73,5.27c-2.85,0.54-5.58,0-8.24-0.93c-1.96-0.68-3.87-1.52-5.76-2.36c-6.27-2.77-12.14-2.01-17.65,1.97
		c-0.39,0.28-0.78,0.56-1.21,0.77c-0.91,0.45-1.74,0.23-2.39-0.48c-0.66-0.72-0.83-1.63-0.24-2.42c0.56-0.75,1.25-1.47,2.03-1.97
		c1.34-0.86,2.74-1.65,4.2-2.28c1.37-0.6,2.85-0.95,4.44-1.46c0-4.09,0-8.21,0-12.64c-0.99,0-1.92,0.01-2.85,0
		c-0.56-0.01-1.13,0.02-1.67-0.08c-1.33-0.23-2.15-1.13-2.12-2.21c0.03-1.12,0.84-1.95,2.24-2.04c1.41-0.1,2.84-0.02,4.43-0.02
		c0-4.98,0-9.66,0-14.49c-0.96-0.23-1.98-0.38-2.92-0.74c-1.1-0.43-2.22-0.93-3.16-1.62c-0.93-0.68-1.03-1.96-0.45-2.8
		c0.63-0.92,1.62-1.25,2.53-0.77c4.48,2.35,8.83,1.32,13.2-0.32c1.67-0.62,2.76-0.27,3.28,0.92c0.55,1.24-0.03,2.41-1.74,3.14
		c-1.32,0.56-2.71,0.94-4.08,1.38c-0.6,0.19-1.22,0.33-1.94,0.53c0,4.85,0,9.62,0,14.75c0.92,0,1.77-0.01,2.61,0
		c0.72,0.01,1.44-0.01,2.15,0.1c1.09,0.16,1.72,0.89,1.8,1.95c0.08,1.08-0.55,1.87-1.58,2.12c-0.84,0.2-1.74,0.18-2.61,0.21
		c-0.71,0.03-1.42,0.01-2.08,0.01c-0.54,1.84-0.67,9.45-0.2,12.47c4.41,0.19,8.28,2.35,12.34,3.97
		C391.33,88.12,393.15,88.62,395.34,88.5z"/>
	<path fill="rgba(180, 153, 96, 0.99)" d="M204.09,67.93c0-5.26,0-10.28,0-15.58c-0.72-0.14-1.57-0.24-2.37-0.49c-1.44-0.44-2.92-0.83-4.26-1.5
		c-0.71-0.36-1.3-1.17-1.68-1.92c-0.42-0.84-0.23-1.87,0.64-2.32c0.62-0.32,1.66-0.49,2.19-0.18c4.87,2.81,9.78,2.25,14.75,0.41
		c1.52-0.56,2.53-0.32,3.11,0.78c0.57,1.08,0.26,2.34-1.08,3.02c-1.41,0.71-2.97,1.13-4.48,1.62c-0.66,0.21-1.38,0.28-2.19,0.44
		c0,5.28,0,10.44,0,15.75c0.92,0.05,1.69,0.09,2.47,0.12c0.56,0.03,1.13-0.01,1.67,0.08c1.22,0.19,1.98,0.98,2.04,2
		c0.06,1.12-0.72,2.09-2.06,2.22c-1.34,0.13-2.7,0.03-4.27,0.03c0,5.23,0,10.22,0,15.19c1.77,0.54,3.54,1.02,5.26,1.64
		c0.73,0.26,1.44,0.72,2.02,1.23c0.73,0.65,0.81,1.57,0.35,2.42c-0.46,0.85-1.25,1.24-2.21,1.07c-0.46-0.08-0.9-0.3-1.35-0.48
		c-4.74-1.94-9.49-1.86-14.25-0.04c-0.45,0.17-0.88,0.4-1.34,0.52c-1.04,0.27-1.91-0.05-2.48-0.97c-0.55-0.88-0.33-2.08,0.65-2.76
		c0.84-0.58,1.8-1.07,2.78-1.36c1.83-0.54,3.71-0.91,5.94-1.44c0.06-4.74,0.07-9.66,0.07-14.91c-1.1-0.02-2.11-0.02-3.11-0.07
		c-0.79-0.04-1.61-0.02-2.37-0.22c-1.01-0.27-1.66-1.01-1.59-2.12c0.07-1.09,0.76-1.81,1.81-1.93c1.26-0.15,2.55-0.09,3.83-0.13
		C202.98,68.05,203.36,68,204.09,67.93z"/>
</g>
<rect x="0" y="0" class="st0" width="688.08" height="445.92"/>
<rect class="st0" width="688.08" height="445.92"/>
</svg>
